<svg xmlns="http://www.w3.org/2000/svg" xmlns:xlink="http://www.w3.org/1999/xlink" width="500" zoomAndPan="magnify" viewBox="0 0 375 374.999991" height="500" preserveAspectRatio="xMidYMid meet" version="1.0"><defs><clipPath id="83e43d30b0"><path d="M 139 97 L 257 97 L 257 221 L 139 221 Z M 139 97 " clip-rule="nonzero"/></clipPath><clipPath id="fbacad140f"><path d="M 195.144531 73.792969 L 280.15625 121.03125 L 224.863281 220.53125 L 139.855469 173.292969 Z M 195.144531 73.792969 " clip-rule="nonzero"/></clipPath><clipPath id="f1766035df"><path d="M 195.144531 73.792969 L 280.15625 121.03125 L 172.792969 314.234375 L 87.785156 266.996094 Z M 195.144531 73.792969 " clip-rule="nonzero"/></clipPath><clipPath id="b60462824b"><path d="M 131 216 L 202 216 L 202 278 L 131 278 Z M 131 216 " clip-rule="nonzero"/></clipPath><clipPath id="6958b08f7b"><path d="M 116.066406 216.105469 L 201.074219 263.34375 L 180.140625 301.015625 L 95.132812 253.777344 Z M 116.066406 216.105469 " clip-rule="nonzero"/></clipPath><clipPath id="b8b1fdd5d9"><path d="M 202.34375 60.84375 L 287.351562 108.082031 L 179.992188 301.28125 L 94.984375 254.042969 Z M 202.34375 60.84375 " clip-rule="nonzero"/></clipPath><clipPath id="898aade279"><path d="M 145 190 L 216 190 L 216 252 L 145 252 Z M 145 190 " clip-rule="nonzero"/></clipPath><clipPath id="1703fc9e4a"><path d="M 130.171875 190.71875 L 215.179688 237.957031 L 194.246094 275.632812 L 109.234375 228.394531 Z M 130.171875 190.71875 " clip-rule="nonzero"/></clipPath><clipPath id="23bfc5e922"><path d="M 216.449219 35.460938 L 301.457031 82.699219 L 194.097656 275.898438 L 109.085938 228.660156 Z M 216.449219 35.460938 " clip-rule="nonzero"/></clipPath><clipPath id="9aa7f8ae96"><path d="M 155 172 L 226 172 L 226 234 L 155 234 Z M 155 172 " clip-rule="nonzero"/></clipPath><clipPath id="8dcaad9606"><path d="M 140.175781 172.714844 L 225.183594 219.953125 L 204.25 257.628906 L 119.242188 210.390625 Z M 140.175781 172.714844 " clip-rule="nonzero"/></clipPath><clipPath id="8e11be81a7"><path d="M 226.453125 17.457031 L 311.460938 64.695312 L 204.101562 257.894531 L 119.09375 210.65625 Z M 226.453125 17.457031 " clip-rule="nonzero"/></clipPath></defs><rect x="-37.5" width="450" fill="#ffffff" y="-37.499999" height="449.999989" fill-opacity="1"/><rect x="-37.5" width="450" fill="#ffffff" y="-37.499999" height="449.999989" fill-opacity="1"/><rect x="-37.5" width="450" fill="#ffffff" y="-37.499999" height="449.999989" fill-opacity="1"/><g clip-path="url(#83e43d30b0)"><g clip-path="url(#fbacad140f)"><g clip-path="url(#f1766035df)"><path fill="#000000" d="M 178.386719 128.738281 C 180.65625 127.140625 183.246094 126.074219 185.957031 125.59375 C 189.511719 124.96875 193.269531 125.355469 196.757812 126.890625 L 207.28125 107.953125 L 231.992188 107.566406 L 244.714844 128.753906 L 234.1875 147.691406 C 237.335938 149.84375 239.648438 152.828125 240.996094 156.179688 C 242.019531 158.734375 242.484375 161.496094 242.324219 164.269531 Z M 246.6875 145.9375 L 256.335938 128.570312 L 237.632812 97.417969 L 201.296875 97.988281 L 191.648438 115.351562 C 180.605469 114.421875 169.507812 119.925781 163.882812 130.289062 C 156.402344 144.066406 161.753906 161.710938 175.484375 169.339844 C 177.953125 170.714844 178.84375 173.824219 177.472656 176.289062 L 125.847656 269.195312 C 124.386719 271.824219 123.890625 274.878906 124.441406 277.835938 L 125.761719 284.9375 L 183.019531 181.894531 C 183.558594 180.925781 184.785156 180.578125 185.753906 181.117188 C 186.726562 181.65625 187.078125 182.878906 186.539062 183.847656 L 129.1875 287.054688 C 128.390625 288.488281 129.601562 290.207031 131.21875 289.945312 L 146.878906 287.398438 C 147.929688 287.226562 148.84375 286.585938 149.359375 285.65625 C 150.292969 283.976562 149.683594 281.855469 148.003906 280.917969 L 142.621094 277.929688 L 145.230469 273.234375 L 153.660156 277.917969 L 159.882812 266.722656 L 151.453125 262.039062 L 154.0625 257.34375 L 162.488281 262.027344 L 163.996094 259.320312 L 158.28125 256.144531 L 160.890625 251.449219 L 166.605469 254.621094 L 170.417969 247.761719 L 160.359375 242.175781 L 165.179688 233.507812 L 175.234375 239.09375 L 185.503906 220.609375 L 179.792969 217.433594 L 184.609375 208.765625 L 190.320312 211.941406 L 202.429688 190.15625 C 203.796875 187.691406 206.910156 186.804688 209.378906 188.175781 C 223.429688 195.984375 241.265625 191.019531 248.933594 176.921875 C 254.457031 166.769531 253.207031 154.6875 246.6875 145.9375 Z M 221.535156 129.15625 L 230.898438 134.359375 L 236.09375 125.011719 L 226.730469 119.808594 Z M 215.035156 140.851562 L 224.398438 146.054688 L 229.59375 136.707031 L 220.230469 131.503906 Z M 203.316406 134.339844 L 212.683594 139.546875 L 217.878906 130.195312 L 208.511719 124.992188 Z M 209.816406 122.644531 L 219.183594 127.847656 L 224.378906 118.5 L 215.011719 113.296875 L 209.816406 122.644531 " fill-opacity="1" fill-rule="nonzero"/></g></g></g><g clip-path="url(#b60462824b)"><g clip-path="url(#6958b08f7b)"><g clip-path="url(#b8b1fdd5d9)"><path fill="#000000" d="M 185.582031 115.785156 C 187.851562 114.1875 190.445312 113.121094 193.152344 112.644531 C 196.710938 112.019531 200.464844 112.402344 203.953125 113.941406 L 214.480469 95 L 239.1875 94.617188 L 251.910156 115.800781 L 241.386719 134.742188 C 244.535156 136.890625 246.847656 139.878906 248.191406 143.226562 C 249.21875 145.78125 249.679688 148.546875 249.519531 151.316406 Z M 253.882812 132.988281 L 263.535156 115.621094 L 244.828125 84.46875 L 208.496094 85.035156 L 198.84375 102.402344 C 187.800781 101.472656 176.707031 106.972656 171.078125 117.335938 C 163.597656 131.117188 168.949219 148.761719 182.679688 156.390625 C 185.148438 157.761719 186.039062 160.871094 184.671875 163.339844 L 133.042969 256.242188 C 131.582031 258.871094 131.085938 261.925781 131.636719 264.886719 L 132.957031 271.984375 L 190.21875 168.945312 C 190.757812 167.972656 191.980469 167.625 192.953125 168.164062 C 193.921875 168.707031 194.273438 169.929688 193.734375 170.898438 L 136.382812 274.105469 C 135.585938 275.539062 136.796875 277.257812 138.417969 276.992188 L 154.074219 274.445312 C 155.125 274.277344 156.039062 273.632812 156.558594 272.703125 C 157.492188 271.023438 156.882812 268.902344 155.199219 267.96875 L 149.820312 264.980469 L 152.429688 260.28125 L 160.855469 264.964844 L 167.078125 253.769531 L 158.648438 249.085938 L 161.257812 244.394531 L 169.6875 249.074219 L 171.191406 246.367188 L 165.476562 243.191406 L 168.085938 238.496094 L 173.800781 241.671875 L 177.613281 234.8125 L 167.558594 229.222656 L 172.375 220.554688 L 182.429688 226.144531 L 192.703125 207.660156 L 186.988281 204.484375 L 191.804688 195.816406 L 197.519531 198.992188 L 209.625 177.203125 C 210.996094 174.738281 214.105469 173.855469 216.574219 175.226562 C 230.625 183.035156 248.464844 178.066406 256.132812 163.972656 C 261.652344 153.820312 260.402344 141.734375 253.882812 132.988281 Z M 228.730469 116.207031 L 238.09375 121.410156 L 243.289062 112.0625 L 233.925781 106.855469 Z M 222.230469 127.902344 L 231.597656 133.105469 L 236.792969 123.757812 L 227.425781 118.550781 Z M 210.511719 121.390625 L 219.878906 126.59375 L 225.074219 117.246094 L 215.707031 112.039062 Z M 217.011719 109.695312 L 226.378906 114.898438 L 231.574219 105.550781 L 222.207031 100.34375 L 217.011719 109.695312 " fill-opacity="1" fill-rule="nonzero"/></g></g></g><g clip-path="url(#898aade279)"><g clip-path="url(#1703fc9e4a)"><g clip-path="url(#23bfc5e922)"><path fill="#000000" d="M 199.6875 90.402344 C 201.957031 88.804688 204.550781 87.738281 207.257812 87.261719 C 210.816406 86.636719 214.570312 87.019531 218.058594 88.558594 L 228.585938 69.617188 L 253.292969 69.234375 L 266.015625 90.417969 L 255.492188 109.359375 C 258.640625 111.507812 260.953125 114.496094 262.296875 117.84375 C 263.324219 120.398438 263.785156 123.164062 263.625 125.933594 Z M 267.988281 107.605469 L 277.636719 90.238281 L 258.933594 59.085938 L 222.601562 59.652344 L 212.949219 77.019531 C 201.90625 76.089844 190.8125 81.589844 185.183594 91.953125 C 177.703125 105.734375 183.054688 123.378906 196.785156 131.007812 C 199.253906 132.378906 200.144531 135.488281 198.777344 137.953125 L 147.148438 230.859375 C 145.6875 233.488281 145.191406 236.542969 145.742188 239.503906 L 147.0625 246.601562 L 204.324219 143.558594 C 204.863281 142.589844 206.085938 142.242188 207.058594 142.78125 C 208.027344 143.320312 208.378906 144.546875 207.839844 145.515625 L 150.488281 248.722656 C 149.691406 250.15625 150.902344 251.875 152.523438 251.609375 L 168.179688 249.0625 C 169.230469 248.894531 170.144531 248.25 170.660156 247.320312 C 171.59375 245.640625 170.988281 243.519531 169.304688 242.585938 L 163.925781 239.597656 L 166.535156 234.898438 L 174.960938 239.582031 L 181.183594 228.386719 L 172.753906 223.703125 L 175.363281 219.007812 L 183.792969 223.691406 L 185.296875 220.984375 L 179.582031 217.808594 L 182.191406 213.113281 L 187.90625 216.289062 L 191.71875 209.429688 L 181.664062 203.839844 L 186.480469 195.171875 L 196.535156 200.761719 L 206.808594 182.277344 L 201.09375 179.101562 L 205.910156 170.433594 L 211.625 173.609375 L 223.730469 151.820312 C 225.101562 149.355469 228.210938 148.472656 230.679688 149.84375 C 244.730469 157.652344 262.570312 152.683594 270.238281 138.589844 C 275.757812 128.4375 274.507812 116.351562 267.988281 107.605469 Z M 242.835938 90.824219 L 252.199219 96.027344 L 257.394531 86.675781 L 248.03125 81.472656 Z M 236.335938 102.519531 L 245.703125 107.722656 L 250.898438 98.375 L 241.53125 93.167969 Z M 224.617188 96.007812 L 233.984375 101.210938 L 239.179688 91.863281 L 229.8125 86.65625 Z M 231.117188 84.3125 L 240.484375 89.515625 L 245.679688 80.167969 L 236.3125 74.960938 L 231.117188 84.3125 " fill-opacity="1" fill-rule="nonzero"/></g></g></g><g clip-path="url(#9aa7f8ae96)"><g clip-path="url(#8dcaad9606)"><g clip-path="url(#8e11be81a7)"><path fill="#000000" d="M 209.691406 72.398438 C 211.960938 70.800781 214.554688 69.734375 217.261719 69.257812 C 220.820312 68.628906 224.578125 69.015625 228.0625 70.554688 L 238.589844 51.613281 L 263.296875 51.230469 L 276.019531 72.414062 L 265.496094 91.355469 C 268.644531 93.503906 270.957031 96.492188 272.300781 99.839844 C 273.328125 102.394531 273.789062 105.160156 273.632812 107.929688 Z M 277.992188 89.597656 L 287.644531 72.234375 L 268.9375 41.082031 L 232.605469 41.648438 L 222.953125 59.015625 C 211.910156 58.085938 200.816406 63.585938 195.1875 73.949219 C 187.707031 87.726562 193.0625 105.375 206.789062 113.003906 C 209.257812 114.375 210.152344 117.484375 208.78125 119.949219 L 157.152344 212.855469 C 155.691406 215.484375 155.195312 218.539062 155.746094 221.496094 L 157.066406 228.597656 L 214.328125 125.554688 C 214.867188 124.585938 216.089844 124.238281 217.0625 124.777344 C 218.03125 125.316406 218.382812 126.542969 217.84375 127.511719 L 160.492188 230.71875 C 159.699219 232.152344 160.90625 233.871094 162.527344 233.605469 L 178.183594 231.058594 C 179.234375 230.886719 180.148438 230.246094 180.667969 229.316406 C 181.601562 227.636719 180.992188 225.515625 179.308594 224.582031 L 173.929688 221.589844 L 176.539062 216.894531 L 184.96875 221.578125 L 191.1875 210.382812 L 182.757812 205.699219 L 185.367188 201.003906 L 193.796875 205.6875 L 195.300781 202.980469 L 189.585938 199.804688 L 192.199219 195.109375 L 197.910156 198.285156 L 201.722656 191.421875 L 191.667969 185.835938 L 196.484375 177.167969 L 206.539062 182.753906 L 216.8125 164.269531 L 211.097656 161.097656 L 215.914062 152.429688 L 221.628906 155.601562 L 233.734375 133.816406 C 235.105469 131.351562 238.214844 130.464844 240.6875 131.839844 C 254.734375 139.644531 272.574219 134.679688 280.242188 120.585938 C 285.765625 110.433594 284.511719 98.347656 277.992188 89.597656 Z M 252.839844 72.816406 L 262.207031 78.023438 L 267.402344 68.671875 L 258.035156 63.46875 Z M 246.339844 84.515625 L 255.707031 89.71875 L 260.902344 80.367188 L 251.535156 75.164062 Z M 234.625 78.003906 L 243.988281 83.207031 L 249.183594 73.859375 L 239.820312 68.652344 Z M 241.121094 66.308594 L 250.488281 71.511719 L 255.683594 62.160156 L 246.316406 56.957031 L 241.121094 66.308594 " fill-opacity="1" fill-rule="nonzero"/></g></g></g></svg>