<svg xmlns="http://www.w3.org/2000/svg" xmlns:xlink="http://www.w3.org/1999/xlink" width="500" zoomAndPan="magnify" viewBox="0 0 375 374.999991" height="500" preserveAspectRatio="xMidYMid meet" version="1.0"><defs><g/><clipPath id="06fa28017b"><path d="M 120.65625 120.65625 L 254.15625 120.65625 L 254.15625 254.15625 L 120.65625 254.15625 Z M 120.65625 120.65625 " clip-rule="nonzero"/></clipPath><clipPath id="94ffafd30d"><path d="M 90 195 L 108 195 L 108 213 L 90 213 Z M 90 195 " clip-rule="nonzero"/></clipPath><clipPath id="631edb52fc"><path d="M 94.5 191.691406 L 111.394531 199.824219 L 103.265625 216.71875 L 86.367188 208.585938 Z M 94.5 191.691406 " clip-rule="nonzero"/></clipPath><clipPath id="6ffcdb9237"><path d="M 94.5 191.691406 L 111.394531 199.824219 L 103.265625 216.71875 L 86.367188 208.585938 Z M 94.5 191.691406 " clip-rule="nonzero"/></clipPath><clipPath id="3bc49d5f22"><path d="M 94.5 191.691406 L 111.394531 199.824219 L 103.265625 216.71875 L 86.367188 208.585938 Z M 94.5 191.691406 " clip-rule="nonzero"/></clipPath><clipPath id="f88dc24f08"><path d="M 267 195 L 285 195 L 285 213 L 267 213 Z M 267 195 " clip-rule="nonzero"/></clipPath><clipPath id="67e8ef9e8b"><path d="M 271.460938 191.691406 L 288.355469 199.824219 L 280.226562 216.71875 L 263.332031 208.585938 Z M 271.460938 191.691406 " clip-rule="nonzero"/></clipPath><clipPath id="541c22a203"><path d="M 271.460938 191.691406 L 288.355469 199.824219 L 280.226562 216.71875 L 263.332031 208.585938 Z M 271.460938 191.691406 " clip-rule="nonzero"/></clipPath><clipPath id="ac16e91dc0"><path d="M 271.460938 191.691406 L 288.355469 199.824219 L 280.226562 216.71875 L 263.332031 208.585938 Z M 271.460938 191.691406 " clip-rule="nonzero"/></clipPath><clipPath id="7c9e0c5c23"><path d="M 167 149 L 217 149 L 217 202 L 167 202 Z M 167 149 " clip-rule="nonzero"/></clipPath><clipPath id="79a2626e5e"><path d="M 190.625 138.914062 L 226.945312 159.097656 L 203.320312 201.613281 L 167 181.429688 Z M 190.625 138.914062 " clip-rule="nonzero"/></clipPath><clipPath id="84708648ca"><path d="M 190.625 138.914062 L 226.945312 159.097656 L 181.074219 241.652344 L 144.75 221.46875 Z M 190.625 138.914062 " clip-rule="nonzero"/></clipPath><clipPath id="7119e3d5e9"><path d="M 163 199 L 194 199 L 194 226 L 163 226 Z M 163 199 " clip-rule="nonzero"/></clipPath><clipPath id="4d08720a2a"><path d="M 156.832031 199.722656 L 193.15625 219.90625 L 184.210938 236.003906 L 147.886719 215.820312 Z M 156.832031 199.722656 " clip-rule="nonzero"/></clipPath><clipPath id="772eb094aa"><path d="M 193.699219 133.382812 L 230.023438 153.566406 L 184.148438 236.117188 L 147.824219 215.933594 Z M 193.699219 133.382812 " clip-rule="nonzero"/></clipPath><clipPath id="02a350e5ae"><path d="M 169 188 L 200 188 L 200 215 L 169 215 Z M 169 188 " clip-rule="nonzero"/></clipPath><clipPath id="ae0d5b90a1"><path d="M 162.859375 188.875 L 199.183594 209.058594 L 190.238281 225.160156 L 153.914062 204.972656 Z M 162.859375 188.875 " clip-rule="nonzero"/></clipPath><clipPath id="5a0fcb51d0"><path d="M 199.726562 122.535156 L 236.050781 142.71875 L 190.175781 225.273438 L 153.851562 205.085938 Z M 199.726562 122.535156 " clip-rule="nonzero"/></clipPath><clipPath id="1ba5776f7f"><path d="M 173 181 L 204 181 L 204 208 L 173 208 Z M 173 181 " clip-rule="nonzero"/></clipPath><clipPath id="6c65525017"><path d="M 167.136719 181.183594 L 203.460938 201.367188 L 194.515625 217.464844 L 158.191406 197.28125 Z M 167.136719 181.183594 " clip-rule="nonzero"/></clipPath><clipPath id="df54b936a8"><path d="M 204 114.84375 L 240.324219 135.027344 L 194.449219 217.578125 L 158.128906 197.394531 Z M 204 114.84375 " clip-rule="nonzero"/></clipPath></defs><path fill="#ffffff" d="M 299.535156 187.65625 C 299.535156 189.492188 299.488281 191.328125 299.398438 193.164062 C 299.308594 195 299.175781 196.832031 298.992188 198.660156 C 298.8125 200.488281 298.589844 202.308594 298.320312 204.128906 C 298.050781 205.945312 297.738281 207.753906 297.378906 209.554688 C 297.019531 211.359375 296.617188 213.148438 296.171875 214.929688 C 295.726562 216.714844 295.238281 218.484375 294.703125 220.242188 C 294.171875 222 293.59375 223.742188 292.976562 225.472656 C 292.359375 227.203125 291.699219 228.917969 290.996094 230.613281 C 290.292969 232.3125 289.550781 233.988281 288.765625 235.652344 C 287.980469 237.3125 287.152344 238.953125 286.289062 240.570312 C 285.421875 242.191406 284.519531 243.789062 283.574219 245.367188 C 282.632812 246.941406 281.648438 248.492188 280.628906 250.019531 C 279.609375 251.546875 278.550781 253.050781 277.457031 254.527344 C 276.367188 256 275.234375 257.449219 274.070312 258.871094 C 272.90625 260.289062 271.707031 261.679688 270.476562 263.042969 C 269.242188 264.402344 267.976562 265.734375 266.679688 267.03125 C 265.378906 268.332031 264.050781 269.597656 262.691406 270.832031 C 261.332031 272.066406 259.941406 273.265625 258.523438 274.429688 C 257.101562 275.59375 255.65625 276.726562 254.183594 277.820312 C 252.707031 278.914062 251.207031 279.972656 249.679688 280.992188 C 248.152344 282.011719 246.601562 282.996094 245.027344 283.941406 C 243.453125 284.882812 241.855469 285.789062 240.238281 286.65625 C 238.617188 287.519531 236.980469 288.347656 235.320312 289.132812 C 233.660156 289.917969 231.984375 290.664062 230.285156 291.363281 C 228.589844 292.066406 226.878906 292.730469 225.148438 293.347656 C 223.421875 293.96875 221.679688 294.542969 219.921875 295.078125 C 218.164062 295.609375 216.394531 296.097656 214.617188 296.546875 C 212.835938 296.992188 211.042969 297.394531 209.242188 297.753906 C 207.441406 298.113281 205.632812 298.425781 203.820312 298.695312 C 202.003906 298.964844 200.179688 299.1875 198.355469 299.371094 C 196.527344 299.550781 194.695312 299.683594 192.863281 299.773438 C 191.03125 299.863281 189.195312 299.910156 187.359375 299.910156 C 185.523438 299.910156 183.6875 299.863281 181.855469 299.773438 C 180.019531 299.683594 178.191406 299.550781 176.363281 299.371094 C 174.535156 299.1875 172.714844 298.964844 170.898438 298.695312 C 169.082031 298.425781 167.273438 298.113281 165.476562 297.753906 C 163.675781 297.394531 161.882812 296.992188 160.101562 296.546875 C 158.320312 296.097656 156.554688 295.609375 154.796875 295.078125 C 153.039062 294.542969 151.296875 293.96875 149.570312 293.347656 C 147.839844 292.730469 146.128906 292.066406 144.429688 291.363281 C 142.734375 290.664062 141.058594 289.917969 139.398438 289.132812 C 137.738281 288.347656 136.097656 287.519531 134.480469 286.65625 C 132.859375 285.789062 131.265625 284.882812 129.691406 283.941406 C 128.113281 282.996094 126.5625 282.011719 125.039062 280.992188 C 123.511719 279.972656 122.011719 278.914062 120.535156 277.820312 C 119.0625 276.726562 117.613281 275.59375 116.195312 274.429688 C 114.777344 273.265625 113.386719 272.066406 112.027344 270.832031 C 110.667969 269.597656 109.335938 268.332031 108.039062 267.03125 C 106.742188 265.734375 105.476562 264.402344 104.242188 263.042969 C 103.011719 261.679688 101.8125 260.289062 100.648438 258.871094 C 99.480469 257.449219 98.351562 256 97.257812 254.527344 C 96.164062 253.050781 95.109375 251.546875 94.089844 250.019531 C 93.070312 248.492188 92.085938 246.941406 91.144531 245.367188 C 90.199219 243.789062 89.292969 242.191406 88.429688 240.570312 C 87.5625 238.953125 86.738281 237.3125 85.953125 235.652344 C 85.167969 233.988281 84.425781 232.3125 83.722656 230.613281 C 83.019531 228.917969 82.359375 227.203125 81.742188 225.472656 C 81.121094 223.742188 80.546875 222 80.015625 220.242188 C 79.480469 218.484375 78.992188 216.714844 78.546875 214.929688 C 78.097656 213.148438 77.699219 211.359375 77.339844 209.554688 C 76.980469 207.753906 76.667969 205.945312 76.398438 204.128906 C 76.128906 202.308594 75.902344 200.488281 75.722656 198.660156 C 75.542969 196.832031 75.410156 195 75.320312 193.164062 C 75.230469 191.328125 75.183594 189.492188 75.183594 187.65625 C 75.183594 185.820312 75.230469 183.984375 75.320312 182.148438 C 75.410156 180.3125 75.542969 178.480469 75.722656 176.652344 C 75.902344 174.824219 76.128906 173.003906 76.398438 171.183594 C 76.667969 169.367188 76.980469 167.558594 77.339844 165.757812 C 77.699219 163.953125 78.097656 162.164062 78.546875 160.378906 C 78.992188 158.597656 79.480469 156.828125 80.015625 155.070312 C 80.546875 153.3125 81.121094 151.570312 81.742188 149.839844 C 82.359375 148.109375 83.019531 146.394531 83.722656 144.699219 C 84.425781 143 85.167969 141.320312 85.953125 139.660156 C 86.738281 138 87.5625 136.359375 88.429688 134.738281 C 89.292969 133.121094 90.199219 131.523438 91.144531 129.945312 C 92.085938 128.371094 93.070312 126.820312 94.089844 125.292969 C 95.109375 123.761719 96.164062 122.261719 97.257812 120.785156 C 98.351562 119.3125 99.480469 117.863281 100.648438 116.441406 C 101.8125 115.023438 103.011719 113.632812 104.242188 112.269531 C 105.476562 110.910156 106.742188 109.578125 108.039062 108.28125 C 109.335938 106.980469 110.667969 105.714844 112.027344 104.480469 C 113.386719 103.246094 114.777344 102.046875 116.195312 100.882812 C 117.613281 99.71875 119.0625 98.585938 120.535156 97.492188 C 122.011719 96.398438 123.511719 95.339844 125.039062 94.320312 C 126.5625 93.300781 128.113281 92.316406 129.691406 91.371094 C 131.265625 90.429688 132.859375 89.523438 134.480469 88.65625 C 136.097656 87.789062 137.738281 86.964844 139.398438 86.179688 C 141.058594 85.394531 142.734375 84.648438 144.429688 83.945312 C 146.128906 83.242188 147.839844 82.582031 149.570312 81.964844 C 151.296875 81.34375 153.039062 80.769531 154.796875 80.234375 C 156.554688 79.703125 158.320312 79.210938 160.101562 78.765625 C 161.882812 78.320312 163.675781 77.917969 165.476562 77.558594 C 167.273438 77.199219 169.082031 76.886719 170.898438 76.617188 C 172.714844 76.347656 174.535156 76.121094 176.363281 75.941406 C 178.191406 75.761719 180.019531 75.628906 181.855469 75.539062 C 183.6875 75.445312 185.523438 75.402344 187.359375 75.402344 C 189.195312 75.402344 191.03125 75.445312 192.863281 75.539062 C 194.695312 75.628906 196.527344 75.761719 198.355469 75.941406 C 200.179688 76.121094 202.003906 76.347656 203.820312 76.617188 C 205.632812 76.886719 207.441406 77.199219 209.242188 77.558594 C 211.042969 77.917969 212.835938 78.320312 214.617188 78.765625 C 216.394531 79.210938 218.164062 79.703125 219.921875 80.234375 C 221.679688 80.769531 223.421875 81.34375 225.148438 81.964844 C 226.878906 82.582031 228.589844 83.242188 230.285156 83.945312 C 231.984375 84.648438 233.660156 85.394531 235.320312 86.179688 C 236.980469 86.964844 238.617188 87.789062 240.238281 88.65625 C 241.855469 89.523438 243.453125 90.429688 245.027344 91.371094 C 246.601562 92.316406 248.152344 93.300781 249.679688 94.320312 C 251.207031 95.339844 252.707031 96.398438 254.183594 97.492188 C 255.65625 98.585938 257.101562 99.71875 258.523438 100.882812 C 259.941406 102.046875 261.332031 103.246094 262.691406 104.480469 C 264.050781 105.714844 265.378906 106.980469 266.679688 108.28125 C 267.976562 109.578125 269.242188 110.910156 270.476562 112.269531 C 271.707031 113.632812 272.90625 115.023438 274.070312 116.441406 C 275.234375 117.863281 276.367188 119.3125 277.457031 120.785156 C 278.550781 122.261719 279.609375 123.761719 280.628906 125.292969 C 281.648438 126.820312 282.632812 128.371094 283.574219 129.945312 C 284.519531 131.523438 285.421875 133.121094 286.289062 134.738281 C 287.152344 136.359375 287.980469 138 288.765625 139.660156 C 289.550781 141.320312 290.292969 143 290.996094 144.699219 C 291.699219 146.394531 292.359375 148.109375 292.976562 149.839844 C 293.59375 151.570312 294.171875 153.3125 294.703125 155.070312 C 295.238281 156.828125 295.726562 158.597656 296.171875 160.378906 C 296.617188 162.164062 297.019531 163.953125 297.378906 165.757812 C 297.738281 167.558594 298.050781 169.367188 298.320312 171.183594 C 298.589844 173.003906 298.8125 174.824219 298.992188 176.652344 C 299.175781 178.480469 299.308594 180.3125 299.398438 182.148438 C 299.488281 183.984375 299.535156 185.820312 299.535156 187.65625 Z M 299.535156 187.65625 " fill-opacity="1" fill-rule="nonzero"/><path fill="#000000" d="M 187.359375 301.992188 C 124.355469 301.992188 73.101562 250.703125 73.101562 187.65625 C 73.101562 124.609375 124.355469 73.316406 187.359375 73.316406 C 250.363281 73.316406 301.617188 124.609375 301.617188 187.65625 C 301.617188 250.703125 250.363281 301.992188 187.359375 301.992188 Z M 187.359375 77.484375 C 126.65625 77.484375 77.265625 126.90625 77.265625 187.65625 C 77.265625 248.40625 126.65625 297.824219 187.359375 297.824219 C 248.0625 297.824219 297.453125 248.40625 297.453125 187.65625 C 297.453125 126.90625 248.0625 77.484375 187.359375 77.484375 Z M 187.359375 77.484375 " fill-opacity="1" fill-rule="nonzero"/><g clip-path="url(#06fa28017b)"><path fill="#ffffff" d="M 254.023438 187.40625 C 254.023438 188.496094 253.996094 189.585938 253.941406 190.671875 C 253.886719 191.761719 253.808594 192.847656 253.699219 193.933594 C 253.59375 195.019531 253.460938 196.101562 253.300781 197.179688 C 253.140625 198.257812 252.953125 199.332031 252.742188 200.402344 C 252.527344 201.46875 252.289062 202.535156 252.023438 203.589844 C 251.761719 204.648438 251.46875 205.699219 251.152344 206.742188 C 250.835938 207.785156 250.496094 208.820312 250.128906 209.847656 C 249.761719 210.875 249.367188 211.890625 248.949219 212.898438 C 248.535156 213.90625 248.09375 214.902344 247.625 215.886719 C 247.160156 216.871094 246.667969 217.847656 246.15625 218.808594 C 245.640625 219.769531 245.105469 220.71875 244.542969 221.652344 C 243.984375 222.589844 243.402344 223.507812 242.792969 224.414062 C 242.1875 225.320312 241.5625 226.210938 240.910156 227.089844 C 240.261719 227.964844 239.59375 228.824219 238.898438 229.667969 C 238.207031 230.507812 237.496094 231.335938 236.765625 232.140625 C 236.03125 232.949219 235.28125 233.738281 234.511719 234.511719 C 233.738281 235.28125 232.949219 236.03125 232.140625 236.765625 C 231.335938 237.496094 230.507812 238.207031 229.667969 238.898438 C 228.824219 239.59375 227.964844 240.261719 227.089844 240.910156 C 226.210938 241.5625 225.320312 242.1875 224.414062 242.792969 C 223.507812 243.402344 222.589844 243.984375 221.652344 244.542969 C 220.71875 245.105469 219.769531 245.640625 218.808594 246.15625 C 217.847656 246.667969 216.871094 247.160156 215.886719 247.625 C 214.902344 248.09375 213.90625 248.535156 212.898438 248.949219 C 211.890625 249.367188 210.875 249.761719 209.847656 250.128906 C 208.820312 250.496094 207.785156 250.835938 206.742188 251.152344 C 205.699219 251.46875 204.648438 251.761719 203.589844 252.023438 C 202.535156 252.289062 201.46875 252.527344 200.402344 252.742188 C 199.332031 252.953125 198.257812 253.140625 197.179688 253.300781 C 196.101562 253.460938 195.019531 253.59375 193.933594 253.699219 C 192.847656 253.808594 191.761719 253.886719 190.671875 253.941406 C 189.585938 253.996094 188.496094 254.023438 187.40625 254.023438 C 186.316406 254.023438 185.226562 253.996094 184.136719 253.941406 C 183.046875 253.886719 181.960938 253.808594 180.875 253.699219 C 179.789062 253.59375 178.707031 253.460938 177.628906 253.300781 C 176.550781 253.140625 175.476562 252.953125 174.410156 252.742188 C 173.339844 252.527344 172.277344 252.289062 171.21875 252.023438 C 170.160156 251.761719 169.109375 251.46875 168.066406 251.152344 C 167.023438 250.835938 165.988281 250.496094 164.960938 250.128906 C 163.9375 249.761719 162.917969 249.367188 161.910156 248.949219 C 160.90625 248.535156 159.90625 248.09375 158.921875 247.625 C 157.9375 247.160156 156.964844 246.667969 156.003906 246.15625 C 155.039062 245.640625 154.09375 245.105469 153.15625 244.542969 C 152.222656 243.984375 151.300781 243.402344 150.394531 242.792969 C 149.488281 242.1875 148.597656 241.5625 147.722656 240.910156 C 146.84375 240.261719 145.988281 239.59375 145.144531 238.898438 C 144.300781 238.207031 143.476562 237.496094 142.667969 236.765625 C 141.859375 236.03125 141.070312 235.28125 140.300781 234.511719 C 139.527344 233.738281 138.777344 232.949219 138.046875 232.140625 C 137.3125 231.335938 136.601562 230.507812 135.910156 229.667969 C 135.21875 228.824219 134.546875 227.964844 133.898438 227.089844 C 133.25 226.210938 132.621094 225.320312 132.015625 224.414062 C 131.410156 223.507812 130.828125 222.589844 130.265625 221.652344 C 129.707031 220.71875 129.167969 219.769531 128.652344 218.808594 C 128.140625 217.847656 127.648438 216.871094 127.183594 215.886719 C 126.71875 214.902344 126.277344 213.90625 125.859375 212.898438 C 125.441406 211.890625 125.050781 210.875 124.683594 209.847656 C 124.316406 208.820312 123.972656 207.785156 123.65625 206.742188 C 123.339844 205.699219 123.050781 204.648438 122.785156 203.589844 C 122.519531 202.535156 122.28125 201.46875 122.066406 200.402344 C 121.855469 199.332031 121.667969 198.257812 121.507812 197.179688 C 121.347656 196.101562 121.214844 195.019531 121.109375 193.933594 C 121.003906 192.847656 120.921875 191.761719 120.867188 190.671875 C 120.816406 189.585938 120.789062 188.496094 120.789062 187.40625 C 120.789062 186.316406 120.816406 185.226562 120.867188 184.136719 C 120.921875 183.046875 121.003906 181.960938 121.109375 180.875 C 121.214844 179.789062 121.347656 178.707031 121.507812 177.628906 C 121.667969 176.550781 121.855469 175.476562 122.066406 174.410156 C 122.28125 173.339844 122.519531 172.277344 122.785156 171.21875 C 123.050781 170.160156 123.339844 169.109375 123.65625 168.066406 C 123.972656 167.023438 124.316406 165.988281 124.683594 164.960938 C 125.050781 163.9375 125.441406 162.917969 125.859375 161.910156 C 126.277344 160.90625 126.71875 159.90625 127.183594 158.921875 C 127.648438 157.9375 128.140625 156.964844 128.652344 156.003906 C 129.167969 155.039062 129.707031 154.09375 130.265625 153.15625 C 130.828125 152.222656 131.410156 151.300781 132.015625 150.394531 C 132.621094 149.488281 133.25 148.597656 133.898438 147.722656 C 134.546875 146.84375 135.21875 145.988281 135.910156 145.144531 C 136.601562 144.300781 137.3125 143.476562 138.046875 142.667969 C 138.777344 141.859375 139.527344 141.070312 140.300781 140.300781 C 141.070312 139.527344 141.859375 138.777344 142.667969 138.046875 C 143.476562 137.3125 144.300781 136.601562 145.144531 135.910156 C 145.988281 135.21875 146.84375 134.546875 147.722656 133.898438 C 148.597656 133.25 149.488281 132.621094 150.394531 132.015625 C 151.300781 131.410156 152.222656 130.828125 153.15625 130.265625 C 154.09375 129.707031 155.039062 129.167969 156.003906 128.652344 C 156.964844 128.140625 157.9375 127.648438 158.921875 127.183594 C 159.90625 126.71875 160.90625 126.277344 161.910156 125.859375 C 162.917969 125.441406 163.9375 125.050781 164.960938 124.683594 C 165.988281 124.316406 167.023438 123.972656 168.066406 123.65625 C 169.109375 123.339844 170.160156 123.050781 171.21875 122.785156 C 172.277344 122.519531 173.339844 122.28125 174.410156 122.066406 C 175.476562 121.855469 176.550781 121.667969 177.628906 121.507812 C 178.707031 121.347656 179.789062 121.214844 180.875 121.109375 C 181.960938 121.003906 183.046875 120.921875 184.136719 120.867188 C 185.226562 120.816406 186.316406 120.789062 187.40625 120.789062 C 188.496094 120.789062 189.585938 120.816406 190.671875 120.867188 C 191.761719 120.921875 192.847656 121.003906 193.933594 121.109375 C 195.019531 121.214844 196.101562 121.347656 197.179688 121.507812 C 198.257812 121.667969 199.332031 121.855469 200.402344 122.066406 C 201.46875 122.28125 202.535156 122.519531 203.589844 122.785156 C 204.648438 123.050781 205.699219 123.339844 206.742188 123.65625 C 207.785156 123.972656 208.820312 124.316406 209.847656 124.683594 C 210.875 125.050781 211.890625 125.441406 212.898438 125.859375 C 213.90625 126.277344 214.902344 126.71875 215.886719 127.183594 C 216.871094 127.648438 217.847656 128.140625 218.808594 128.652344 C 219.769531 129.167969 220.71875 129.707031 221.652344 130.265625 C 222.589844 130.828125 223.507812 131.410156 224.414062 132.015625 C 225.320312 132.621094 226.210938 133.25 227.089844 133.898438 C 227.964844 134.546875 228.824219 135.21875 229.667969 135.910156 C 230.507812 136.601562 231.335938 137.3125 232.140625 138.046875 C 232.949219 138.777344 233.738281 139.527344 234.511719 140.300781 C 235.28125 141.070312 236.03125 141.859375 236.765625 142.667969 C 237.496094 143.476562 238.207031 144.300781 238.898438 145.144531 C 239.59375 145.988281 240.261719 146.84375 240.910156 147.722656 C 241.5625 148.597656 242.1875 149.488281 242.792969 150.394531 C 243.402344 151.300781 243.984375 152.222656 244.542969 153.15625 C 245.105469 154.09375 245.640625 155.039062 246.15625 156.003906 C 246.667969 156.964844 247.160156 157.9375 247.625 158.921875 C 248.09375 159.90625 248.535156 160.90625 248.949219 161.910156 C 249.367188 162.917969 249.761719 163.9375 250.128906 164.960938 C 250.496094 165.988281 250.835938 167.023438 251.152344 168.066406 C 251.46875 169.109375 251.761719 170.160156 252.023438 171.21875 C 252.289062 172.277344 252.527344 173.339844 252.742188 174.410156 C 252.953125 175.476562 253.140625 176.550781 253.300781 177.628906 C 253.460938 178.707031 253.59375 179.789062 253.699219 180.875 C 253.808594 181.960938 253.886719 183.046875 253.941406 184.136719 C 253.996094 185.226562 254.023438 186.316406 254.023438 187.40625 Z M 254.023438 187.40625 " fill-opacity="1" fill-rule="nonzero"/><path fill="#000000" d="M 187.40625 254.15625 C 169.578125 254.15625 152.816406 247.199219 140.214844 234.597656 C 127.609375 221.992188 120.65625 205.230469 120.65625 187.40625 C 120.65625 169.578125 127.609375 152.816406 140.214844 140.214844 C 152.816406 127.609375 169.578125 120.65625 187.40625 120.65625 C 205.230469 120.65625 221.992188 127.609375 234.597656 140.214844 C 247.199219 152.816406 254.15625 169.578125 254.15625 187.40625 C 254.15625 205.230469 247.199219 221.992188 234.597656 234.597656 C 221.992188 247.199219 205.230469 254.15625 187.40625 254.15625 Z M 187.40625 124.652344 C 170.644531 124.652344 154.894531 131.179688 143.039062 143.039062 C 131.179688 154.894531 124.652344 170.644531 124.652344 187.40625 C 124.652344 204.164062 131.179688 219.914062 143.039062 231.773438 C 154.894531 243.628906 170.644531 250.15625 187.40625 250.15625 C 204.164062 250.15625 219.914062 243.628906 231.773438 231.773438 C 243.628906 219.914062 250.15625 204.164062 250.15625 187.40625 C 250.15625 170.644531 243.628906 154.894531 231.773438 143.039062 C 219.914062 131.179688 204.164062 124.652344 187.40625 124.652344 Z M 187.40625 124.652344 " fill-opacity="1" fill-rule="nonzero"/></g><g fill="#000000" fill-opacity="1"><g transform="translate(106.667384, 177.647631)"><g><path d="M -4.3125 -7.96875 L -4.71875 -6.078125 L 1.03125 -4.859375 L 0.265625 -1.21875 L -16.171875 -4.703125 L -14.859375 -10.9375 C -14.578125 -12.25 -14.085938 -13.300781 -13.390625 -14.09375 C -12.703125 -14.894531 -11.898438 -15.425781 -10.984375 -15.6875 C -10.078125 -15.945312 -9.144531 -15.976562 -8.1875 -15.78125 C -7.125 -15.550781 -6.21875 -15.078125 -5.46875 -14.359375 C -4.726562 -13.640625 -4.257812 -12.722656 -4.0625 -11.609375 L 2.921875 -13.796875 L 2.125 -9.984375 Z M -7.703125 -6.71875 L -7.28125 -8.734375 C -7.09375 -9.578125 -7.113281 -10.328125 -7.34375 -10.984375 C -7.582031 -11.640625 -8.113281 -12.054688 -8.9375 -12.234375 C -9.738281 -12.398438 -10.363281 -12.234375 -10.8125 -11.734375 C -11.269531 -11.234375 -11.59375 -10.550781 -11.78125 -9.6875 L -12.203125 -7.671875 Z M -7.703125 -6.71875 "/></g></g></g><g fill="#000000" fill-opacity="1"><g transform="translate(109.755948, 162.927528)"><g><path d="M 0.65625 -11.46875 L -1.453125 -6.515625 L 1.65625 -3.875 L 0.171875 -0.40625 L -12.9375 -12.46875 L -11.578125 -15.671875 L 6.203125 -14.546875 L 4.71875 -11.0625 Z M -2.328125 -11.734375 L -8 -12.265625 L -8.0625 -12.140625 L -3.71875 -8.484375 Z M -2.328125 -11.734375 "/></g></g></g><g fill="#000000" fill-opacity="1"><g transform="translate(116.384265, 147.705237)"><g><path d="M -3.703125 -18.671875 L -6.1875 -15.015625 L 5.015625 -7.4375 L 2.9375 -4.34375 L -8.265625 -11.921875 L -10.734375 -8.28125 L -13.453125 -10.109375 L -6.421875 -20.5 Z M -3.703125 -18.671875 "/></g></g></g><g fill="#000000" fill-opacity="1"><g transform="translate(124.767674, 135.453401)"><g><path d="M -6.1875 -13.03125 L -3.625 -10.53125 L 0.828125 -15.109375 L 2.890625 -13.09375 L -1.5625 -8.515625 L 1.15625 -5.875 L 6.4375 -11.296875 L 8.78125 -9.015625 L 0.875 -0.890625 L -11.15625 -12.609375 L -3.25 -20.734375 L -0.90625 -18.453125 Z M -6.1875 -13.03125 "/></g></g></g><g fill="#000000" fill-opacity="1"><g transform="translate(135.212298, 125.204963)"><g/></g></g><g fill="#000000" fill-opacity="1"><g transform="translate(139.790977, 120.881609)"><g><path d="M -6.984375 -15.328125 L -2.109375 -18.015625 L 5.359375 -11.234375 L 5.421875 -11.265625 L 3.734375 -21.203125 L 8.609375 -23.890625 L 16.6875 -9.15625 L 13.46875 -7.390625 L 7.9375 -17.484375 L 7.859375 -17.4375 L 9.9375 -5.453125 L 7.84375 -4.3125 L -1.140625 -12.5 L -1.21875 -12.453125 L 4.3125 -2.359375 L 1.09375 -0.59375 Z M -6.984375 -15.328125 "/></g></g></g><g fill="#000000" fill-opacity="1"><g transform="translate(157.831479, 111.298949)"><g><path d="M 5.8125 -1.671875 L 4.234375 -7.1875 L -4.125 -16.28125 L -0.390625 -17.359375 L 4.90625 -11.28125 L 5.03125 -11.3125 L 6.328125 -19.28125 L 10.046875 -20.359375 L 7.8125 -8.21875 L 9.390625 -2.703125 Z M 5.8125 -1.671875 "/></g></g></g><g fill="#000000" fill-opacity="1"><g transform="translate(173.89941, 107.127071)"><g/></g></g><g fill="#000000" fill-opacity="1"><g transform="translate(180.451715, 106.053808)"><g><path d="M 12.046875 -3.40625 L 12.078125 -0.140625 L 1.25 -0.015625 L 1.046875 -16.8125 L 4.8125 -16.859375 L 4.953125 -3.328125 Z M 12.046875 -3.40625 "/></g></g></g><g fill="#000000" fill-opacity="1"><g transform="translate(193.835743, 105.791406)"><g><path d="M 11.3125 -1.984375 L 6.015625 -2.90625 L 4.15625 0.71875 L 0.4375 0.078125 L 9.1875 -15.453125 L 12.625 -14.859375 L 15.578125 2.703125 L 11.859375 2.0625 Z M 10.90625 -4.96875 L 10.109375 -10.59375 L 9.96875 -10.609375 L 7.40625 -5.5625 Z M 10.90625 -4.96875 "/></g></g></g><g fill="#000000" fill-opacity="1"><g transform="translate(210.075846, 108.618535)"><g><path d="M 7.34375 -15.15625 L 11.390625 -13.546875 L 13.015625 -1 L 13.09375 -0.96875 L 17.171875 -11.25 L 20.59375 -9.890625 L 14.390625 5.75 L 10.3125 4.125 L 8.578125 -8.03125 L 8.515625 -8.0625 L 4.578125 1.84375 L 1.140625 0.484375 Z M 7.34375 -15.15625 "/></g></g></g><g fill="#000000" fill-opacity="1"><g transform="translate(225.925277, 114.967321)"><g><path d="M 10.3125 -13.359375 L 15.84375 -9.703125 C 17.082031 -8.890625 17.992188 -7.890625 18.578125 -6.703125 C 19.160156 -5.515625 19.367188 -4.222656 19.203125 -2.828125 C 19.035156 -1.441406 18.472656 -0.0195312 17.515625 1.4375 C 16.535156 2.914062 15.425781 4.003906 14.1875 4.703125 C 12.957031 5.410156 11.6875 5.722656 10.375 5.640625 C 9.0625 5.554688 7.785156 5.101562 6.546875 4.28125 L 1.0625 0.65625 Z M 7.828125 1.09375 C 8.921875 1.820312 9.992188 2.082031 11.046875 1.875 C 12.097656 1.675781 13.140625 0.796875 14.171875 -0.765625 C 15.203125 -2.328125 15.609375 -3.628906 15.390625 -4.671875 C 15.171875 -5.722656 14.507812 -6.617188 13.40625 -7.359375 L 11.515625 -8.59375 L 5.9375 -0.140625 Z M 7.828125 1.09375 "/></g></g></g><g fill="#000000" fill-opacity="1"><g transform="translate(239.799979, 124.372702)"><g><path d="M 10.953125 6.046875 L 8.6875 8.390625 L 0.90625 0.875 L 12.578125 -11.203125 L 15.28125 -8.59375 L 5.84375 1.125 Z M 10.953125 6.046875 "/></g></g></g><g fill="#000000" fill-opacity="1"><g transform="translate(249.505007, 133.513538)"><g><path d="M 4.796875 7.203125 C 3.835938 5.835938 3.335938 4.453125 3.296875 3.046875 C 3.253906 1.640625 3.601562 0.328125 4.34375 -0.890625 C 5.082031 -2.117188 6.097656 -3.1875 7.390625 -4.09375 C 8.691406 -5.007812 10.050781 -5.609375 11.46875 -5.890625 C 12.894531 -6.171875 14.269531 -6.054688 15.59375 -5.546875 C 16.914062 -5.046875 18.050781 -4.117188 19 -2.765625 C 19.945312 -1.421875 20.429688 -0.0507812 20.453125 1.34375 C 20.472656 2.738281 20.101562 4.054688 19.34375 5.296875 C 18.59375 6.546875 17.5625 7.632812 16.25 8.5625 C 14.9375 9.476562 13.578125 10.070312 12.171875 10.34375 C 10.773438 10.613281 9.429688 10.492188 8.140625 9.984375 C 6.859375 9.472656 5.742188 8.546875 4.796875 7.203125 Z M 7.53125 5.28125 C 8.207031 6.25 9.144531 6.707031 10.34375 6.65625 C 11.539062 6.601562 12.757812 6.140625 14 5.265625 C 15.238281 4.398438 16.097656 3.410156 16.578125 2.296875 C 17.054688 1.179688 16.953125 0.132812 16.265625 -0.84375 C 15.796875 -1.507812 15.191406 -1.929688 14.453125 -2.109375 C 13.722656 -2.296875 12.941406 -2.269531 12.109375 -2.03125 C 11.273438 -1.800781 10.46875 -1.410156 9.6875 -0.859375 C 8.46875 -0.00390625 7.628906 0.976562 7.171875 2.09375 C 6.710938 3.21875 6.832031 4.28125 7.53125 5.28125 Z M 7.53125 5.28125 "/></g></g></g><g fill="#000000" fill-opacity="1"><g transform="translate(259.533586, 148.090959)"><g><path d="M 8.15625 3.96875 L 7.375 2.1875 L 1.984375 4.546875 L 0.5 1.140625 L 15.890625 -5.59375 L 18.453125 0.25 C 18.984375 1.46875 19.195312 2.601562 19.09375 3.65625 C 19 4.71875 18.65625 5.617188 18.0625 6.359375 C 17.476562 7.097656 16.738281 7.664062 15.84375 8.0625 C 14.832031 8.5 13.816406 8.640625 12.796875 8.484375 C 11.785156 8.335938 10.878906 7.867188 10.078125 7.078125 L 5.65625 12.921875 L 4.09375 9.34375 Z M 10.15625 0.96875 L 10.984375 2.859375 C 11.335938 3.648438 11.796875 4.242188 12.359375 4.640625 C 12.929688 5.046875 13.609375 5.082031 14.390625 4.75 C 15.128906 4.414062 15.535156 3.910156 15.609375 3.234375 C 15.691406 2.566406 15.554688 1.828125 15.203125 1.015625 L 14.375 -0.875 Z M 10.15625 0.96875 "/></g></g></g><g fill="#000000" fill-opacity="1"><g transform="translate(265.591238, 161.853437)"><g><path d="M 16.6875 -2.421875 L 18.125 4.046875 C 18.445312 5.503906 18.40625 6.859375 18 8.109375 C 17.601562 9.367188 16.859375 10.441406 15.765625 11.328125 C 14.671875 12.210938 13.273438 12.84375 11.578125 13.21875 C 9.835938 13.601562 8.28125 13.617188 6.90625 13.265625 C 5.539062 12.921875 4.414062 12.257812 3.53125 11.28125 C 2.644531 10.3125 2.039062 9.097656 1.71875 7.640625 L 0.296875 1.21875 Z M 4.859375 6.21875 C 5.140625 7.5 5.726562 8.4375 6.625 9.03125 C 7.519531 9.625 8.882812 9.71875 10.71875 9.3125 C 12.539062 8.90625 13.738281 8.25 14.3125 7.34375 C 14.882812 6.4375 15.03125 5.332031 14.75 4.03125 L 14.265625 1.84375 L 4.375 4.03125 Z M 4.859375 6.21875 "/></g></g></g><g clip-path="url(#94ffafd30d)"><g clip-path="url(#631edb52fc)"><g clip-path="url(#6ffcdb9237)"><g clip-path="url(#3bc49d5f22)"><path fill="#000000" d="M 107.328125 208.269531 C 100.433594 206.386719 99.03125 206.875 94.816406 212.652344 C 96.699219 205.753906 96.207031 204.355469 90.433594 200.136719 C 97.332031 202.019531 98.730469 201.53125 102.945312 195.757812 C 101.0625 202.652344 101.554688 204.054688 107.328125 208.269531 Z M 107.328125 208.269531 " fill-opacity="1" fill-rule="nonzero"/></g></g></g></g><g fill="#000000" fill-opacity="1"><g transform="translate(110.30912, 235.487498)"><g><path d="M 4.265625 1.296875 L 3.75 0.484375 L 1.3125 2.046875 L 0.328125 0.515625 L 7.28125 -3.921875 L 8.96875 -1.28125 C 9.320312 -0.738281 9.507812 -0.207031 9.53125 0.3125 C 9.5625 0.832031 9.460938 1.296875 9.234375 1.703125 C 9.003906 2.109375 8.6875 2.4375 8.28125 2.6875 C 7.832031 2.976562 7.359375 3.125 6.859375 3.125 C 6.359375 3.132812 5.878906 2.976562 5.421875 2.65625 L 3.734375 5.828125 L 2.6875 4.21875 Z M 5 -0.3125 L 5.546875 0.546875 C 5.773438 0.910156 6.039062 1.164062 6.34375 1.3125 C 6.65625 1.457031 6.984375 1.414062 7.328125 1.1875 C 7.671875 0.96875 7.832031 0.691406 7.8125 0.359375 C 7.800781 0.0351562 7.679688 -0.304688 7.453125 -0.671875 L 6.90625 -1.53125 Z M 5 -0.3125 "/></g></g></g><g fill="#000000" fill-opacity="1"><g transform="translate(115.438874, 243.28509)"><g><path d="M 6.734375 -2.1875 L 5.359375 -1.09375 L 7.296875 1.359375 L 6.1875 2.234375 L 4.25 -0.21875 L 2.796875 0.9375 L 5.109375 3.84375 L 3.84375 4.84375 L 0.375 0.484375 L 6.84375 -4.640625 L 10.3125 -0.28125 L 9.046875 0.71875 Z M 6.734375 -2.1875 "/></g></g></g><g fill="#000000" fill-opacity="1"><g transform="translate(121.007997, 250.177168)"><g><path d="M 5.96875 -5.703125 L 7.25 -4.390625 L 4.125 1.40625 L 4.171875 1.453125 L 10.015625 -1.578125 L 11.296875 -0.25 L 3.546875 3.65625 L 1.90625 1.984375 Z M 5.96875 -5.703125 "/></g></g></g><g fill="#000000" fill-opacity="1"><g transform="translate(128.075537, 257.122283)"><g><path d="M 5.890625 -5.796875 L 7.3125 -4.59375 L 1.9375 1.65625 L 0.515625 0.453125 Z M 5.890625 -5.796875 "/></g></g></g><g fill="#000000" fill-opacity="1"><g transform="translate(132.110894, 260.576783)"><g><path d="M 5.90625 -3.90625 L 4.875 -2.5 L 7.40625 -0.640625 L 6.5625 0.515625 L 4.03125 -1.34375 L 2.9375 0.15625 L 5.9375 2.359375 L 4.984375 3.65625 L 0.484375 0.359375 L 5.359375 -6.296875 L 9.859375 -3 L 8.90625 -1.703125 Z M 5.90625 -3.90625 "/></g></g></g><g fill="#000000" fill-opacity="1"><g transform="translate(139.353239, 265.897516)"><g><path d="M 4.09375 -7.15625 L 5.6875 -6.28125 L 4.015625 -0.5625 L 4.09375 -0.515625 L 8.421875 -4.78125 L 9.828125 -4 L 8.53125 1.9375 L 8.609375 1.96875 L 12.5625 -2.484375 L 14.171875 -1.609375 L 8.34375 4.609375 L 6.4375 3.5625 L 7.5625 -1.484375 L 7.5 -1.515625 L 3.828125 2.125 L 1.921875 1.078125 Z M 4.09375 -7.15625 "/></g></g></g><g fill="#000000" fill-opacity="1"><g transform="translate(151.808991, 272.417033)"><g><path d="M 3.359375 1.4375 C 2.742188 1.195312 2.257812 0.863281 1.90625 0.4375 C 1.5625 0.0195312 1.347656 -0.425781 1.265625 -0.90625 C 1.191406 -1.382812 1.238281 -1.835938 1.40625 -2.265625 L 1.4375 -2.34375 L 3.3125 -1.609375 L 3.28125 -1.53125 C 3.175781 -1.269531 3.175781 -0.992188 3.28125 -0.703125 C 3.382812 -0.410156 3.625 -0.191406 4 -0.046875 C 4.3125 0.078125 4.59375 0.09375 4.84375 0 C 5.09375 -0.0820312 5.269531 -0.253906 5.375 -0.515625 C 5.46875 -0.753906 5.457031 -0.976562 5.34375 -1.1875 C 5.226562 -1.394531 5.0625 -1.566406 4.84375 -1.703125 L 4.03125 -2.234375 C 3.570312 -2.546875 3.179688 -2.945312 2.859375 -3.4375 C 2.535156 -3.9375 2.519531 -4.554688 2.8125 -5.296875 C 3 -5.765625 3.269531 -6.128906 3.625 -6.390625 C 3.988281 -6.648438 4.410156 -6.785156 4.890625 -6.796875 C 5.378906 -6.816406 5.878906 -6.726562 6.390625 -6.53125 C 6.984375 -6.289062 7.453125 -5.972656 7.796875 -5.578125 C 8.140625 -5.191406 8.351562 -4.769531 8.4375 -4.3125 C 8.519531 -3.863281 8.484375 -3.441406 8.328125 -3.046875 L 8.296875 -2.984375 L 6.421875 -3.71875 L 6.453125 -3.765625 C 6.535156 -4.003906 6.53125 -4.253906 6.4375 -4.515625 C 6.351562 -4.785156 6.132812 -4.988281 5.78125 -5.125 C 5.5 -5.238281 5.242188 -5.25 5.015625 -5.15625 C 4.796875 -5.070312 4.632812 -4.90625 4.53125 -4.65625 C 4.4375 -4.40625 4.453125 -4.171875 4.578125 -3.953125 C 4.710938 -3.742188 4.894531 -3.570312 5.125 -3.4375 L 5.9375 -2.90625 C 6.476562 -2.550781 6.882812 -2.117188 7.15625 -1.609375 C 7.425781 -1.097656 7.429688 -0.515625 7.171875 0.140625 C 6.984375 0.617188 6.691406 0.988281 6.296875 1.25 C 5.910156 1.519531 5.457031 1.671875 4.9375 1.703125 C 4.425781 1.742188 3.898438 1.65625 3.359375 1.4375 Z M 3.359375 1.4375 "/></g></g></g><g fill="#000000" fill-opacity="1"><g transform="translate(160.416436, 275.604612)"><g/></g></g><g fill="#000000" fill-opacity="1"><g transform="translate(164.990715, 277.011767)"><g><path d="M 2.90625 0.625 L 3.5 -2.125 L 2.015625 -8 L 3.875 -7.609375 L 4.75 -3.734375 L 4.796875 -3.71875 L 7.21875 -6.875 L 9.078125 -6.46875 L 5.28125 -1.734375 L 4.6875 1.015625 Z M 2.90625 0.625 "/></g></g></g><g fill="#000000" fill-opacity="1"><g transform="translate(174.722783, 279.015474)"><g><path d="M 4.21875 0.53125 C 3.394531 0.445312 2.71875 0.1875 2.1875 -0.25 C 1.65625 -0.6875 1.28125 -1.234375 1.0625 -1.890625 C 0.84375 -2.554688 0.769531 -3.28125 0.84375 -4.0625 C 0.914062 -4.832031 1.128906 -5.53125 1.484375 -6.15625 C 1.847656 -6.78125 2.332031 -7.253906 2.9375 -7.578125 C 3.539062 -7.898438 4.25 -8.019531 5.0625 -7.9375 C 5.851562 -7.863281 6.515625 -7.609375 7.046875 -7.171875 C 7.578125 -6.734375 7.953125 -6.175781 8.171875 -5.5 C 8.390625 -4.820312 8.460938 -4.09375 8.390625 -3.3125 C 8.304688 -2.53125 8.085938 -1.832031 7.734375 -1.21875 C 7.390625 -0.613281 6.914062 -0.15625 6.3125 0.15625 C 5.707031 0.476562 5.007812 0.601562 4.21875 0.53125 Z M 4.375 -1.109375 C 4.945312 -1.054688 5.414062 -1.257812 5.78125 -1.71875 C 6.144531 -2.175781 6.363281 -2.78125 6.4375 -3.53125 C 6.507812 -4.257812 6.414062 -4.894531 6.15625 -5.4375 C 5.894531 -5.976562 5.472656 -6.273438 4.890625 -6.328125 C 4.492188 -6.367188 4.140625 -6.28125 3.828125 -6.0625 C 3.523438 -5.84375 3.285156 -5.539062 3.109375 -5.15625 C 2.929688 -4.769531 2.820312 -4.347656 2.78125 -3.890625 C 2.707031 -3.160156 2.804688 -2.53125 3.078125 -2 C 3.347656 -1.46875 3.78125 -1.171875 4.375 -1.109375 Z M 4.375 -1.109375 "/></g></g></g><g fill="#000000" fill-opacity="1"><g transform="translate(185.442335, 279.928234)"><g><path d="M 4.046875 0.046875 C 3.035156 0.0664062 2.203125 -0.210938 1.546875 -0.796875 C 0.898438 -1.378906 0.566406 -2.320312 0.546875 -3.625 L 0.453125 -8.265625 L 2.28125 -8.296875 L 2.359375 -3.78125 C 2.390625 -2.382812 2.941406 -1.695312 4.015625 -1.71875 C 4.585938 -1.726562 4.988281 -1.925781 5.21875 -2.3125 C 5.457031 -2.707031 5.566406 -3.21875 5.546875 -3.84375 L 5.46875 -8.359375 L 7.296875 -8.390625 L 7.390625 -3.75 C 7.410156 -2.445312 7.101562 -1.492188 6.46875 -0.890625 C 5.84375 -0.285156 5.035156 0.0234375 4.046875 0.046875 Z M 4.046875 0.046875 "/></g></g></g><g fill="#000000" fill-opacity="1"><g transform="translate(195.582224, 279.536123)"><g/></g></g><g fill="#000000" fill-opacity="1"><g transform="translate(200.36087, 279.071953)"><g><path d="M 4.171875 -0.671875 C 3.398438 -0.523438 2.695312 -0.59375 2.0625 -0.875 C 1.425781 -1.15625 0.898438 -1.585938 0.484375 -2.171875 C 0.078125 -2.753906 -0.191406 -3.414062 -0.328125 -4.15625 C -0.472656 -4.90625 -0.457031 -5.628906 -0.28125 -6.328125 C -0.113281 -7.023438 0.210938 -7.613281 0.703125 -8.09375 C 1.191406 -8.582031 1.820312 -8.898438 2.59375 -9.046875 C 3.539062 -9.222656 4.367188 -9.09375 5.078125 -8.65625 C 5.785156 -8.21875 6.304688 -7.570312 6.640625 -6.71875 L 4.90625 -6.390625 C 4.726562 -6.773438 4.460938 -7.070312 4.109375 -7.28125 C 3.765625 -7.5 3.363281 -7.5625 2.90625 -7.46875 C 2.289062 -7.351562 1.875 -7.023438 1.65625 -6.484375 C 1.4375 -5.953125 1.398438 -5.296875 1.546875 -4.515625 C 1.691406 -3.734375 1.960938 -3.128906 2.359375 -2.703125 C 2.765625 -2.285156 3.273438 -2.132812 3.890625 -2.25 C 4.335938 -2.332031 4.6875 -2.53125 4.9375 -2.84375 C 5.1875 -3.164062 5.320312 -3.519531 5.34375 -3.90625 L 7.0625 -4.234375 C 7.0625 -3.359375 6.8125 -2.585938 6.3125 -1.921875 C 5.820312 -1.265625 5.109375 -0.847656 4.171875 -0.671875 Z M 4.171875 -0.671875 "/></g></g></g><g fill="#000000" fill-opacity="1"><g transform="translate(210.580834, 277.005175)"><g><path d="M 4.5 -3.40625 L 1.96875 -2.609375 L 1.984375 -0.609375 L 0.203125 -0.0625 L 0.546875 -8.8125 L 2.1875 -9.3125 L 7.421875 -2.3125 L 5.640625 -1.75 Z M 3.65625 -4.59375 L 2.046875 -6.890625 L 2 -6.875 L 1.984375 -4.078125 Z M 3.65625 -4.59375 "/></g></g></g><g fill="#000000" fill-opacity="1"><g transform="translate(220.255795, 273.872154)"><g><path d="M -2.78125 -7.796875 L -0.828125 -8.65625 L 4.125 -4.90625 L 4.15625 -4.921875 L 1.953125 -9.890625 L 3.609375 -10.625 L 6.953125 -3.0625 L 4.984375 -2.1875 L 0.140625 -5.765625 L 0.109375 -5.75 L 2.21875 -0.96875 L 0.5625 -0.234375 Z M -2.78125 -7.796875 "/></g></g></g><g fill="#000000" fill-opacity="1"><g transform="translate(229.595791, 269.518178)"><g/></g></g><g fill="#000000" fill-opacity="1"><g transform="translate(233.777453, 267.235381)"><g><path d="M 1.890625 -9.15625 L 0.0625 -7.96875 L 3.6875 -2.40625 L 2.15625 -1.40625 L -1.46875 -6.96875 L -3.28125 -5.78125 L -4.15625 -7.125 L 1.015625 -10.5 Z M 1.890625 -9.15625 "/></g></g></g><g fill="#000000" fill-opacity="1"><g transform="translate(241.407096, 262.130033)"><g><path d="M 0.828125 -4.390625 L 0.078125 -3.78125 L 1.890625 -1.53125 L 0.46875 -0.390625 L -4.71875 -6.796875 L -2.28125 -8.765625 C -1.769531 -9.171875 -1.257812 -9.421875 -0.75 -9.515625 C -0.25 -9.609375 0.210938 -9.5625 0.640625 -9.375 C 1.078125 -9.1875 1.445312 -8.90625 1.75 -8.53125 C 2.082031 -8.113281 2.28125 -7.65625 2.34375 -7.15625 C 2.40625 -6.664062 2.296875 -6.175781 2.015625 -5.6875 L 5.375 -4.359375 L 3.890625 -3.140625 Z M -0.859375 -4.9375 L -0.0625 -5.578125 C 0.269531 -5.847656 0.488281 -6.140625 0.59375 -6.453125 C 0.695312 -6.773438 0.617188 -7.097656 0.359375 -7.421875 C 0.109375 -7.734375 -0.175781 -7.863281 -0.5 -7.8125 C -0.832031 -7.757812 -1.164062 -7.597656 -1.5 -7.328125 L -2.296875 -6.6875 Z M -0.859375 -4.9375 "/></g></g></g><g fill="#000000" fill-opacity="1"><g transform="translate(248.631746, 256.151819)"><g><path d="M 2.9375 -2.78125 C 2.226562 -2.0625 1.4375 -1.6875 0.5625 -1.65625 C -0.3125 -1.625 -1.210938 -2.0625 -2.140625 -2.96875 L -5.4375 -6.234375 L -4.140625 -7.53125 L -0.9375 -4.359375 C 0.0507812 -3.378906 0.921875 -3.269531 1.671875 -4.03125 C 2.078125 -4.4375 2.226562 -4.859375 2.125 -5.296875 C 2.019531 -5.742188 1.742188 -6.1875 1.296875 -6.625 L -1.90625 -9.796875 L -0.609375 -11.09375 L 2.6875 -7.828125 C 3.613281 -6.921875 4.0625 -6.03125 4.03125 -5.15625 C 4 -4.28125 3.632812 -3.488281 2.9375 -2.78125 Z M 2.9375 -2.78125 "/></g></g></g><g fill="#000000" fill-opacity="1"><g transform="translate(255.759257, 248.743882)"><g><path d="M 2.34375 -2.796875 C 1.9375 -2.285156 1.476562 -1.921875 0.96875 -1.703125 C 0.46875 -1.484375 -0.0195312 -1.40625 -0.5 -1.46875 C -0.976562 -1.539062 -1.394531 -1.71875 -1.75 -2 L -1.828125 -2.0625 L -0.578125 -3.640625 L -0.515625 -3.578125 C -0.285156 -3.410156 -0.015625 -3.332031 0.296875 -3.34375 C 0.609375 -3.363281 0.882812 -3.53125 1.125 -3.84375 C 1.332031 -4.101562 1.429688 -4.363281 1.421875 -4.625 C 1.410156 -4.882812 1.296875 -5.101562 1.078125 -5.28125 C 0.878906 -5.4375 0.664062 -5.492188 0.4375 -5.453125 C 0.207031 -5.421875 -0.00390625 -5.316406 -0.203125 -5.140625 L -0.953125 -4.5 C -1.378906 -4.164062 -1.878906 -3.914062 -2.453125 -3.75 C -3.023438 -3.582031 -3.617188 -3.742188 -4.234375 -4.234375 C -4.640625 -4.546875 -4.90625 -4.910156 -5.03125 -5.328125 C -5.164062 -5.753906 -5.171875 -6.203125 -5.046875 -6.671875 C -4.929688 -7.140625 -4.703125 -7.585938 -4.359375 -8.015625 C -3.960938 -8.515625 -3.523438 -8.875 -3.046875 -9.09375 C -2.566406 -9.3125 -2.101562 -9.390625 -1.65625 -9.328125 C -1.207031 -9.273438 -0.816406 -9.117188 -0.484375 -8.859375 L -0.421875 -8.8125 L -1.671875 -7.234375 L -1.71875 -7.265625 C -1.914062 -7.421875 -2.148438 -7.492188 -2.421875 -7.484375 C -2.703125 -7.484375 -2.960938 -7.332031 -3.203125 -7.03125 C -3.390625 -6.800781 -3.472656 -6.5625 -3.453125 -6.3125 C -3.429688 -6.070312 -3.316406 -5.867188 -3.109375 -5.703125 C -2.898438 -5.546875 -2.675781 -5.5 -2.4375 -5.5625 C -2.207031 -5.625 -1.988281 -5.738281 -1.78125 -5.90625 L -1.03125 -6.53125 C -0.519531 -6.9375 0.0078125 -7.195312 0.5625 -7.3125 C 1.125 -7.425781 1.679688 -7.265625 2.234375 -6.828125 C 2.648438 -6.503906 2.925781 -6.113281 3.0625 -5.65625 C 3.195312 -5.207031 3.203125 -4.734375 3.078125 -4.234375 C 2.953125 -3.734375 2.707031 -3.253906 2.34375 -2.796875 Z M 2.34375 -2.796875 "/></g></g></g><g fill="#000000" fill-opacity="1"><g transform="translate(261.454228, 241.381993)"><g><path d="M -2.0625 -9.125 L -3.21875 -7.296875 L 2.375 -3.71875 L 1.390625 -2.171875 L -4.203125 -5.75 L -5.375 -3.921875 L -6.734375 -4.78125 L -3.421875 -9.984375 Z M -2.0625 -9.125 "/></g></g></g><g clip-path="url(#f88dc24f08)"><g clip-path="url(#67e8ef9e8b)"><g clip-path="url(#541c22a203)"><g clip-path="url(#ac16e91dc0)"><path fill="#000000" d="M 284.289062 208.269531 C 277.394531 206.386719 275.992188 206.875 271.777344 212.652344 C 273.660156 205.753906 273.171875 204.355469 267.398438 200.136719 C 274.292969 202.019531 275.695312 201.53125 279.910156 195.757812 C 278.027344 202.652344 278.515625 204.054688 284.289062 208.269531 Z M 284.289062 208.269531 " fill-opacity="1" fill-rule="nonzero"/></g></g></g></g><g clip-path="url(#7c9e0c5c23)"><g clip-path="url(#79a2626e5e)"><g clip-path="url(#84708648ca)"><path fill="#000000" d="M 183.460938 162.390625 C 184.433594 161.707031 185.539062 161.253906 186.699219 161.046875 C 188.21875 160.78125 189.824219 160.945312 191.3125 161.601562 L 195.808594 153.511719 L 206.367188 153.34375 L 211.804688 162.398438 L 207.308594 170.492188 C 208.652344 171.410156 209.640625 172.683594 210.214844 174.117188 C 210.652344 175.207031 210.851562 176.390625 210.78125 177.574219 Z M 212.648438 169.742188 L 216.769531 162.320312 L 208.777344 149.007812 L 193.253906 149.25 L 189.128906 156.671875 C 184.410156 156.273438 179.667969 158.625 177.265625 163.054688 C 174.070312 168.941406 176.355469 176.480469 182.222656 179.742188 C 183.277344 180.328125 183.65625 181.65625 183.074219 182.710938 L 161.011719 222.40625 C 160.390625 223.53125 160.175781 224.835938 160.410156 226.097656 L 160.976562 229.132812 L 185.441406 185.105469 C 185.671875 184.691406 186.195312 184.542969 186.609375 184.773438 C 187.027344 185.003906 187.175781 185.527344 186.945312 185.941406 L 162.441406 230.039062 C 162.101562 230.652344 162.617188 231.386719 163.308594 231.273438 L 170 230.183594 C 170.449219 230.113281 170.839844 229.835938 171.058594 229.441406 C 171.457031 228.722656 171.199219 227.816406 170.480469 227.417969 L 168.179688 226.140625 L 169.296875 224.132812 L 172.898438 226.132812 L 175.554688 221.351562 L 171.953125 219.347656 L 173.070312 217.34375 L 176.671875 219.34375 L 177.3125 218.1875 L 174.871094 216.832031 L 175.988281 214.824219 L 178.429688 216.179688 L 180.058594 213.25 L 175.761719 210.863281 L 177.820312 207.15625 L 182.117188 209.546875 L 186.503906 201.648438 L 184.0625 200.289062 L 186.121094 196.585938 L 188.5625 197.941406 L 193.734375 188.632812 C 194.320312 187.582031 195.652344 187.203125 196.707031 187.789062 C 202.710938 191.125 210.332031 189.003906 213.609375 182.980469 C 215.96875 178.640625 215.433594 173.480469 212.648438 169.742188 Z M 201.898438 162.570312 L 205.902344 164.792969 L 208.121094 160.800781 L 204.121094 158.574219 Z M 199.121094 167.566406 L 203.125 169.792969 L 205.34375 165.796875 L 201.34375 163.574219 Z M 194.117188 164.785156 L 198.117188 167.007812 L 200.335938 163.015625 L 196.335938 160.789062 Z M 196.890625 159.789062 L 200.894531 162.011719 L 203.113281 158.015625 L 199.113281 155.792969 L 196.890625 159.789062 " fill-opacity="1" fill-rule="nonzero"/></g></g></g><g clip-path="url(#7119e3d5e9)"><g clip-path="url(#4d08720a2a)"><g clip-path="url(#772eb094aa)"><path fill="#000000" d="M 186.539062 156.859375 C 187.507812 156.175781 188.613281 155.71875 189.773438 155.515625 C 191.292969 155.246094 192.898438 155.410156 194.386719 156.070312 L 198.886719 147.976562 L 209.441406 147.8125 L 214.878906 156.863281 L 210.382812 164.957031 C 211.726562 165.875 212.714844 167.152344 213.289062 168.582031 C 213.726562 169.675781 213.925781 170.855469 213.859375 172.039062 Z M 215.722656 164.207031 L 219.84375 156.785156 L 211.851562 143.476562 L 196.328125 143.71875 L 192.203125 151.136719 C 187.484375 150.742188 182.746094 153.09375 180.339844 157.519531 C 177.144531 163.40625 179.429688 170.945312 185.296875 174.207031 C 186.351562 174.792969 186.734375 176.121094 186.148438 177.175781 L 164.089844 216.875 C 163.464844 217.996094 163.25 219.300781 163.488281 220.566406 L 164.050781 223.601562 L 188.519531 179.570312 C 188.75 179.15625 189.269531 179.007812 189.6875 179.238281 C 190.101562 179.46875 190.25 179.992188 190.019531 180.40625 L 165.515625 224.503906 C 165.175781 225.117188 165.691406 225.851562 166.382812 225.738281 L 173.074219 224.652344 C 173.523438 224.578125 173.914062 224.304688 174.136719 223.90625 C 174.535156 223.1875 174.273438 222.28125 173.554688 221.882812 L 171.257812 220.605469 L 172.371094 218.597656 L 175.972656 220.601562 L 178.628906 215.816406 L 175.03125 213.816406 L 176.144531 211.808594 L 179.746094 213.8125 L 180.386719 212.652344 L 177.945312 211.296875 L 179.0625 209.289062 L 181.503906 210.648438 L 183.132812 207.714844 L 178.835938 205.328125 L 180.894531 201.625 L 185.191406 204.011719 L 189.578125 196.113281 L 187.136719 194.757812 L 189.195312 191.054688 L 191.636719 192.410156 L 196.8125 183.101562 C 197.394531 182.046875 198.726562 181.667969 199.78125 182.253906 C 205.785156 185.589844 213.40625 183.46875 216.683594 177.445312 C 219.042969 173.109375 218.507812 167.945312 215.722656 164.207031 Z M 204.972656 157.035156 L 208.976562 159.261719 L 211.195312 155.265625 L 207.195312 153.042969 Z M 202.199219 162.035156 L 206.199219 164.257812 L 208.417969 160.261719 L 204.417969 158.039062 Z M 197.191406 159.25 L 201.191406 161.476562 L 203.410156 157.480469 L 199.410156 155.257812 Z M 199.96875 154.253906 L 203.96875 156.476562 L 206.1875 152.484375 L 202.1875 150.257812 L 199.96875 154.253906 " fill-opacity="1" fill-rule="nonzero"/></g></g></g><g clip-path="url(#02a350e5ae)"><g clip-path="url(#ae0d5b90a1)"><g clip-path="url(#5a0fcb51d0)"><path fill="#000000" d="M 192.566406 146.011719 C 193.535156 145.328125 194.640625 144.871094 195.800781 144.667969 C 197.320312 144.402344 198.925781 144.566406 200.414062 145.222656 L 204.910156 137.128906 L 215.46875 136.964844 L 220.90625 146.019531 L 216.410156 154.109375 C 217.753906 155.03125 218.742188 156.304688 219.316406 157.738281 C 219.753906 158.828125 219.953125 160.007812 219.886719 161.191406 Z M 221.75 153.359375 L 225.871094 145.941406 L 217.878906 132.628906 L 202.355469 132.871094 L 198.230469 140.292969 C 193.511719 139.894531 188.773438 142.246094 186.367188 146.675781 C 183.171875 152.5625 185.457031 160.101562 191.324219 163.359375 C 192.378906 163.949219 192.761719 165.277344 192.175781 166.328125 L 170.113281 206.027344 C 169.492188 207.152344 169.277344 208.457031 169.515625 209.71875 L 170.078125 212.753906 L 194.546875 168.726562 C 194.773438 168.3125 195.296875 168.160156 195.714844 168.390625 C 196.128906 168.625 196.277344 169.144531 196.046875 169.558594 L 171.542969 213.660156 C 171.203125 214.273438 171.71875 215.007812 172.410156 214.894531 L 179.101562 213.804688 C 179.550781 213.730469 179.941406 213.457031 180.164062 213.0625 C 180.5625 212.34375 180.300781 211.4375 179.582031 211.039062 L 177.28125 209.761719 L 178.398438 207.753906 L 182 209.753906 L 184.65625 204.972656 L 181.054688 202.96875 L 182.171875 200.964844 L 185.773438 202.964844 L 186.414062 201.808594 L 183.972656 200.449219 L 185.089844 198.445312 L 187.53125 199.800781 L 189.160156 196.871094 L 184.863281 194.480469 L 186.921875 190.777344 L 191.21875 193.164062 L 195.605469 185.265625 L 193.164062 183.910156 L 195.222656 180.207031 L 197.664062 181.5625 L 202.835938 172.253906 C 203.421875 171.203125 204.753906 170.824219 205.808594 171.410156 C 211.8125 174.746094 219.433594 172.625 222.710938 166.601562 C 225.070312 162.261719 224.535156 157.097656 221.75 153.359375 Z M 211 146.191406 L 215.003906 148.414062 L 217.222656 144.417969 L 213.222656 142.195312 Z M 208.222656 151.1875 L 212.226562 153.410156 L 214.445312 149.417969 L 210.445312 147.191406 Z M 203.21875 148.40625 L 207.21875 150.628906 L 209.4375 146.632812 L 205.4375 144.410156 Z M 205.996094 143.410156 L 209.996094 145.632812 L 212.214844 141.636719 L 208.214844 139.414062 L 205.996094 143.410156 " fill-opacity="1" fill-rule="nonzero"/></g></g></g><g clip-path="url(#1ba5776f7f)"><g clip-path="url(#6c65525017)"><g clip-path="url(#df54b936a8)"><path fill="#000000" d="M 196.839844 138.320312 C 197.808594 137.636719 198.917969 137.179688 200.074219 136.976562 C 201.59375 136.707031 203.199219 136.871094 204.691406 137.53125 L 209.1875 129.4375 L 219.746094 129.273438 L 225.179688 138.324219 L 220.683594 146.417969 C 222.027344 147.335938 223.015625 148.613281 223.59375 150.042969 C 224.03125 151.136719 224.226562 152.316406 224.160156 153.5 Z M 226.023438 145.667969 L 230.148438 138.246094 L 222.15625 124.9375 L 206.628906 125.179688 L 202.507812 132.597656 C 197.789062 132.203125 193.046875 134.554688 190.640625 138.980469 C 187.445312 144.867188 189.734375 152.40625 195.597656 155.667969 C 196.652344 156.253906 197.035156 157.582031 196.449219 158.636719 L 174.390625 198.335938 C 173.765625 199.457031 173.554688 200.761719 173.789062 202.027344 L 174.355469 205.0625 L 198.820312 161.03125 C 199.050781 160.617188 199.574219 160.46875 199.988281 160.699219 C 200.402344 160.929688 200.554688 161.453125 200.324219 161.867188 L 175.816406 205.964844 C 175.476562 206.578125 175.996094 207.3125 176.6875 207.199219 L 183.375 206.113281 C 183.824219 206.039062 184.214844 205.765625 184.4375 205.367188 C 184.835938 204.648438 184.574219 203.742188 183.855469 203.34375 L 181.558594 202.066406 L 182.671875 200.058594 L 186.273438 202.0625 L 188.933594 197.277344 L 185.332031 195.277344 L 186.445312 193.269531 L 190.046875 195.273438 L 190.691406 194.113281 L 188.25 192.757812 L 189.363281 190.75 L 191.804688 192.109375 L 193.433594 189.175781 L 189.136719 186.789062 L 191.195312 183.085938 L 195.492188 185.472656 L 199.882812 177.574219 L 197.441406 176.21875 L 199.5 172.515625 L 201.941406 173.871094 L 207.113281 164.5625 C 207.699219 163.507812 209.027344 163.128906 210.082031 163.714844 C 216.085938 167.050781 223.707031 164.929688 226.984375 158.90625 C 229.34375 154.570312 228.808594 149.40625 226.023438 145.667969 Z M 215.277344 138.496094 L 219.277344 140.722656 L 221.496094 136.726562 L 217.496094 134.503906 Z M 212.5 143.496094 L 216.5 145.71875 L 218.71875 141.722656 L 214.71875 139.5 Z M 207.492188 140.710938 L 211.496094 142.9375 L 213.714844 138.941406 L 209.710938 136.71875 Z M 210.269531 135.714844 L 214.269531 137.9375 L 216.492188 133.945312 L 212.488281 131.71875 L 210.269531 135.714844 " fill-opacity="1" fill-rule="nonzero"/></g></g></g></svg>